<?xml version="1.0" standalone="no"?>
<!DOCTYPE svg PUBLIC "-//W3C//DTD SVG 20010904//EN"
 "http://www.w3.org/TR/2001/REC-SVG-20010904/DTD/svg10.dtd">
<svg version="1.0" xmlns="http://www.w3.org/2000/svg"
 width="7714.000000pt" height="3061.000000pt" viewBox="0 0 7714.000000 3061.000000"
 preserveAspectRatio="xMidYMid meet">

<g transform="translate(0.000000,3061.000000) scale(0.100000,-0.100000)"
fill="#000000" stroke="none">
<path d="M44398 30145 c-3 -3 -374 -10 -824 -15 -1444 -17 -2401 -42 -3594
-95 -689 -31 -1680 -87 -2105 -120 -104 -8 -282 -21 -395 -30 -273 -20 -476
-38 -935 -80 -641 -60 -1015 -102 -1785 -205 -513 -68 -1306 -208 -1750 -310
-560 -128 -1020 -268 -1375 -418 -293 -124 -850 -419 -1125 -597 -19 -12 -70
-44 -113 -71 -113 -72 -360 -232 -372 -242 -5 -4 -66 -45 -135 -92 -69 -46
-143 -96 -165 -112 -47 -34 -354 -252 -405 -288 -19 -14 -37 -27 -40 -30 -3
-3 -37 -28 -76 -56 -38 -28 -79 -58 -90 -67 -10 -9 -84 -64 -164 -124 -80 -59
-147 -110 -150 -113 -3 -3 -43 -35 -90 -70 -47 -35 -154 -118 -239 -184 -84
-67 -165 -130 -180 -141 -15 -11 -47 -36 -72 -56 -24 -19 -100 -80 -169 -134
-69 -55 -127 -102 -130 -105 -3 -3 -39 -32 -80 -65 -41 -33 -86 -70 -100 -83
-14 -12 -33 -25 -42 -28 -10 -3 -18 -9 -18 -13 0 -4 -38 -38 -85 -75 -47 -37
-91 -73 -98 -79 -17 -17 -111 -95 -182 -152 -33 -26 -82 -67 -110 -90 -76 -64
-172 -144 -255 -212 -41 -33 -84 -69 -95 -79 -11 -11 -45 -39 -75 -64 -30 -25
-57 -47 -60 -50 -3 -3 -88 -75 -190 -160 -102 -85 -187 -157 -190 -160 -3 -3
-25 -21 -50 -40 -25 -19 -54 -44 -66 -55 -11 -11 -43 -39 -70 -62 -27 -23 -60
-51 -74 -63 -14 -12 -34 -29 -45 -38 -175 -147 -211 -178 -215 -182 -3 -3 -34
-30 -70 -60 -36 -30 -67 -57 -70 -60 -3 -3 -45 -39 -95 -80 -49 -41 -124 -104
-166 -140 -41 -36 -100 -85 -129 -110 -30 -25 -93 -78 -140 -119 -47 -40 -96
-83 -110 -95 -14 -12 -68 -57 -120 -101 -52 -44 -127 -107 -166 -140 -38 -33
-81 -69 -95 -80 -34 -28 -153 -129 -159 -135 -3 -3 -43 -37 -90 -75 -47 -38
-90 -74 -96 -80 -43 -38 -120 -102 -133 -109 -9 -5 -20 -15 -26 -22 -5 -7 -68
-60 -140 -119 -71 -59 -141 -117 -155 -128 -14 -12 -59 -49 -100 -81 -41 -33
-77 -62 -80 -65 -3 -4 -41 -35 -85 -71 -109 -88 -114 -92 -138 -114 -12 -10
-38 -30 -57 -45 -19 -14 -44 -33 -55 -43 -39 -32 -332 -263 -365 -288 -18 -14
-56 -43 -84 -66 -28 -22 -109 -84 -181 -138 -71 -54 -137 -103 -145 -109 -71
-56 -361 -264 -480 -344 -47 -32 -87 -60 -90 -63 -17 -19 -423 -274 -532 -335
-141 -79 -369 -190 -473 -231 -179 -69 -609 -197 -1100 -326 -104 -28 -282
-75 -395 -104 -215 -57 -1962 -496 -2325 -584 -115 -28 -329 -80 -475 -116
-146 -36 -319 -78 -385 -94 -66 -16 -304 -75 -530 -130 -535 -132 -828 -204
-1225 -301 -509 -125 -2655 -661 -2960 -739 -151 -39 -369 -95 -485 -125 -394
-101 -704 -181 -835 -216 -41 -11 -160 -43 -265 -70 -104 -27 -255 -67 -335
-89 -80 -21 -314 -84 -520 -140 -206 -56 -388 -105 -405 -111 -16 -5 -122 -34
-235 -65 -113 -31 -275 -76 -360 -101 -85 -25 -193 -55 -240 -68 -47 -13 -155
-43 -240 -68 -85 -25 -193 -57 -240 -70 -598 -175 -1324 -406 -1780 -567 -96
-34 -233 -84 -305 -111 -71 -28 -164 -63 -205 -78 -190 -71 -563 -245 -700
-326 -30 -18 -112 -62 -183 -98 -605 -314 -1108 -731 -1395 -1159 -166 -247
-255 -476 -381 -988 -121 -487 -293 -1414 -381 -2050 -6 -41 -22 -154 -35
-250 -14 -96 -28 -201 -32 -234 -6 -57 -7 -59 -66 -105 -311 -240 -624 -535
-725 -683 -87 -128 -94 -150 -93 -300 1 -72 6 -165 12 -207 21 -160 76 -494
104 -631 8 -41 28 -142 45 -225 81 -414 231 -1090 366 -1655 120 -499 329
-1344 359 -1446 71 -246 211 -445 364 -518 l66 -31 3383 -3 c3286 -2 3382 -3
3382 -21 0 -48 33 -340 51 -451 39 -243 94 -494 154 -700 33 -113 78 -257 86
-275 5 -11 18 -49 30 -85 47 -142 178 -446 279 -645 135 -268 306 -552 445
-741 16 -23 37 -52 45 -64 36 -54 227 -293 335 -419 105 -122 400 -414 570
-563 66 -57 285 -230 365 -288 41 -29 76 -57 78 -62 2 -4 8 -8 13 -8 4 0 50
-28 101 -63 176 -121 461 -286 658 -382 647 -317 1287 -496 2035 -572 237 -24
801 -24 1045 0 604 60 1175 201 1695 418 192 81 597 278 615 300 3 4 23 15 45
27 75 38 262 156 403 254 53 37 106 73 116 80 51 35 269 208 375 298 248 212
523 495 723 745 136 171 318 420 318 435 0 6 5 10 10 10 6 0 10 6 10 14 0 7 6
19 14 25 8 7 22 26 31 44 9 18 29 52 45 77 53 82 117 194 175 305 32 61 61
115 65 120 6 9 74 153 143 305 95 211 229 597 293 850 46 178 101 457 124 620
20 144 40 325 40 368 l0 42 428 0 429 0 114 41 c122 43 159 54 339 99 158 39
343 76 478 94 102 15 1549 16 15207 16 10365 0 15118 -3 15172 -10 92 -13 203
-33 332 -62 73 -16 95 -18 101 -8 6 10 9 9 13 -1 4 -12 7 -11 16 1 9 13 11 13
11 -1 0 -12 21 -21 76 -34 41 -10 119 -33 172 -52 53 -19 117 -42 142 -50 25
-9 49 -20 54 -24 6 -5 234 -9 508 -9 482 0 498 -1 498 -19 0 -46 22 -248 40
-371 24 -160 29 -188 45 -275 59 -325 214 -844 330 -1110 130 -298 239 -517
361 -728 43 -72 80 -134 83 -137 4 -3 37 -52 73 -110 179 -283 467 -638 733
-905 110 -109 338 -319 402 -367 15 -12 30 -25 33 -28 6 -7 212 -166 253 -195
177 -127 297 -207 431 -287 166 -99 220 -128 441 -237 985 -489 2107 -681
3210 -550 326 38 673 106 895 174 25 7 79 23 120 35 156 46 410 139 601 220
152 65 522 249 527 262 2 4 8 8 13 8 9 0 150 81 239 138 97 62 255 167 260
173 3 3 28 21 55 40 28 18 52 36 55 39 3 3 41 32 85 65 437 329 894 805 1212
1263 37 53 71 99 75 100 4 2 8 8 8 13 0 5 22 41 48 81 56 85 71 109 148 243
141 246 156 275 256 495 86 187 177 425 242 630 25 80 52 165 60 190 16 48 72
285 106 440 24 111 76 470 85 585 3 44 8 90 11 103 l4 22 340 0 339 0 213 86
c117 47 240 97 273 111 33 14 132 54 220 88 88 35 239 95 335 135 96 39 240
97 320 130 80 32 287 115 460 185 173 70 335 136 360 146 82 32 592 238 950
384 91 37 221 89 290 116 69 28 150 61 180 74 30 14 111 47 180 74 137 54 371
148 870 351 179 72 390 158 470 190 80 32 240 96 355 143 116 47 350 141 520
210 171 69 371 150 445 180 74 30 243 99 375 152 132 54 312 126 400 162 88
36 225 91 305 123 431 172 431 172 493 229 207 192 405 539 481 846 36 147
114 565 141 765 7 52 25 172 39 265 61 408 236 1845 236 1943 0 22 -20 87 -46
152 -26 63 -82 210 -126 325 -89 236 -111 293 -173 450 -77 195 -135 345 -222
575 -47 124 -98 257 -113 295 -16 39 -49 123 -74 188 l-46 117 0 2076 c0 2314
6 2121 -71 2280 -150 313 -487 581 -957 760 -122 46 -332 109 -462 139 -41 9
-102 23 -135 30 -33 7 -91 21 -130 29 -580 130 -1093 250 -1535 357 -91 22
-277 67 -415 100 -137 33 -295 71 -350 84 -55 13 -156 37 -225 54 -69 16 -253
61 -410 100 -157 38 -341 83 -410 100 -141 34 -376 91 -620 150 -91 22 -338
83 -550 135 -382 94 -656 161 -1050 257 -292 71 -758 186 -1410 348 -311 77
-693 171 -850 210 -157 38 -558 138 -892 220 -334 83 -612 151 -618 151 -6 0
-16 5 -23 10 -11 10 -323 241 -437 324 -25 18 -92 68 -149 111 -58 43 -152
111 -210 153 -59 41 -158 113 -221 160 -63 47 -133 98 -155 114 -22 16 -80 59
-130 94 -49 35 -141 101 -204 147 -63 45 -130 93 -150 107 -43 30 -208 148
-426 304 -88 63 -180 128 -205 146 -25 17 -90 64 -145 103 -147 105 -326 231
-537 378 -103 71 -214 149 -248 172 -65 46 -330 229 -578 401 -205 142 -441
302 -572 390 -58 39 -107 73 -110 76 -3 3 -93 63 -200 135 -107 71 -196 133
-198 137 -2 4 -8 8 -13 8 -11 0 -223 142 -227 153 -2 4 -7 7 -12 7 -4 0 -75
44 -157 98 -510 338 -805 529 -1238 803 -285 180 -743 464 -835 518 -41 25
-102 61 -135 81 -181 111 -583 350 -590 350 -2 0 -28 15 -57 33 -29 19 -75 46
-103 62 -722 401 -723 402 -1135 608 -372 186 -420 209 -670 317 -231 100
-359 149 -555 213 -499 163 -1448 347 -2510 487 -347 45 -576 71 -1240 140
-155 16 -619 55 -955 80 -74 6 -189 15 -255 20 -112 9 -563 36 -995 60 -472
25 -1003 45 -1595 60 -418 10 -1518 14 -1527 5z m-23993 -9515 c-3 -5 -16 -10
-28 -9 -20 1 -20 2 3 9 14 4 26 8 28 9 2 1 0 -3 -3 -9z m-55 -20 c0 -5 -7 -7
-15 -4 -8 4 -15 8 -15 10 0 2 7 4 15 4 8 0 15 -4 15 -10z m-273 -66 c-3 -3
-12 -4 -19 -1 -8 3 -5 6 6 6 11 1 17 -2 13 -5z m150 0 c-3 -3 -12 -4 -19 -1
-8 3 -5 6 6 6 11 1 17 -2 13 -5z m-372 -64 c13 -6 15 -9 5 -9 -8 0 -22 4 -30
9 -18 12 -2 12 25 0z m255 0 c-8 -5 -19 -10 -25 -10 -5 0 -3 5 5 10 8 5 20 10
25 10 6 0 3 -5 -5 -10z m-353 -16 c-3 -3 -12 -4 -19 -1 -8 3 -5 6 6 6 11 1 17
-2 13 -5z m228 -42 c-3 -3 -11 0 -18 7 -9 10 -8 11 6 5 10 -3 15 -9 12 -12z
m-450 -22 c13 -6 15 -9 5 -9 -8 0 -22 4 -30 9 -18 12 -2 12 25 0z m-98 -16
c-3 -3 -12 -4 -19 -1 -8 3 -5 6 6 6 11 1 17 -2 13 -5z m-160 -40 c-3 -3 -12
-4 -19 -1 -8 3 -5 6 6 6 11 1 17 -2 13 -5z m458 -34 c-3 -5 -11 -10 -16 -10
-6 0 -7 5 -4 10 3 6 11 10 16 10 6 0 7 -4 4 -10z m-618 -6 c-3 -3 -12 -4 -19
-1 -8 3 -5 6 6 6 11 1 17 -2 13 -5z m-160 -40 c-3 -3 -12 -4 -19 -1 -8 3 -5 6
6 6 11 1 17 -2 13 -5z m648 -14 c-3 -5 -12 -10 -18 -10 -7 0 -6 4 3 10 19 12
23 12 15 0z m-808 -26 c-3 -3 -12 -4 -19 -1 -8 3 -5 6 6 6 11 1 17 -2 13 -5z
m-170 -40 c-3 -3 -12 -4 -19 -1 -8 3 -5 6 6 6 11 1 17 -2 13 -5z m-47 -14 c-8
-5 -22 -10 -30 -10 -13 0 -13 1 0 10 8 5 22 10 30 10 13 0 13 -1 0 -10z m784
-9 c3 -5 -5 -11 -19 -13 -28 -6 -35 8 -7 15 9 3 18 5 19 6 1 0 4 -3 7 -8z
m-107 -47 c-3 -3 -12 -4 -19 -1 -8 3 -5 6 6 6 11 1 17 -2 13 -5z m-47 -14 c0
-5 -5 -10 -11 -10 -5 0 -7 5 -4 10 3 6 8 10 11 10 2 0 4 -4 4 -10z m-205 -75
c-50 -18 -57 -18 -25 0 14 8 34 14 45 14 11 0 2 -6 -20 -14z m-1168 -41 c-3
-3 -12 -4 -19 -1 -8 3 -5 6 6 6 11 1 17 -2 13 -5z m928 -39 c-50 -18 -53 -18
-29 0 10 8 30 14 44 14 20 0 17 -3 -15 -14z m-1072 -2 c-7 -2 -19 -2 -25 0 -7
3 -2 5 12 5 14 0 19 -2 13 -5z m-46 -9 c-3 -3 -12 -4 -19 -1 -8 3 -5 6 6 6 11
1 17 -2 13 -5z m-57 -14 c-8 -5 -22 -10 -30 -10 -13 0 -13 1 0 10 8 5 22 10
30 10 13 0 13 -1 0 -10z m1087 -6 c-3 -3 -12 -4 -19 -1 -8 3 -5 6 6 6 11 1 17
-2 13 -5z m-1190 -20 c-3 -3 -12 -4 -19 -1 -8 3 -5 6 6 6 11 1 17 -2 13 -5z
m1023 -30 c-25 -7 -49 -13 -55 -13 -18 1 59 27 80 28 11 0 0 -7 -25 -15z
m-1137 -1 c-7 -2 -19 -2 -25 0 -7 3 -2 5 12 5 14 0 19 -2 13 -5z m-46 -9 c-3
-3 -12 -4 -19 -1 -8 3 -5 6 6 6 11 1 17 -2 13 -5z m-57 -14 c-8 -5 -22 -10
-30 -10 -13 0 -13 1 0 10 8 5 22 10 30 10 13 0 13 -1 0 -10z m-103 -26 c-3 -3
-12 -4 -19 -1 -8 3 -5 6 6 6 11 1 17 -2 13 -5z m-114 -31 c-7 -2 -19 -2 -25 0
-7 3 -2 5 12 5 14 0 19 -2 13 -5z m1164 1 c-3 -3 -12 -4 -19 -1 -8 3 -5 6 6 6
11 1 17 -2 13 -5z m-1267 -24 c-8 -5 -19 -10 -25 -10 -5 0 -3 5 5 10 8 5 20
10 25 10 6 0 3 -5 -5 -10z m1157 -6 c-3 -3 -12 -4 -19 -1 -8 3 -5 6 6 6 11 1
17 -2 13 -5z m-160 -40 c-3 -3 -12 -4 -19 -1 -8 3 -5 6 6 6 11 1 17 -2 13 -5z
m-1220 -10 c-3 -3 -12 -4 -19 -1 -8 3 -5 6 6 6 11 1 17 -2 13 -5z m-97 -24
c-8 -5 -22 -9 -30 -9 -10 0 -8 3 5 9 27 12 43 12 25 0z m-223 -56 c-3 -3 -12
-4 -19 -1 -8 3 -5 6 6 6 11 1 17 -2 13 -5z m1110 -10 c-3 -3 -12 -4 -19 -1 -8
3 -5 6 6 6 11 1 17 -2 13 -5z m-1207 -14 c-8 -5 -22 -9 -30 -9 -10 0 -8 3 5 9
27 12 43 12 25 0z m-103 -26 c-3 -3 -12 -4 -19 -1 -8 3 -5 6 6 6 11 1 17 -2
13 -5z m923 -24 c0 -5 -5 -10 -11 -10 -5 0 -7 5 -4 10 3 6 8 10 11 10 2 0 4
-4 4 -10z m-1073 -16 c-3 -3 -12 -4 -19 -1 -8 3 -5 6 6 6 11 1 17 -2 13 -5z
m1060 -10 c-3 -3 -12 -4 -19 -1 -8 3 -5 6 6 6 11 1 17 -2 13 -5z m-1184 -21
c-7 -2 -19 -2 -25 0 -7 3 -2 5 12 5 14 0 19 -2 13 -5z m814 -29 c-3 -3 -12 -4
-19 -1 -8 3 -5 6 6 6 11 1 17 -2 13 -5z m-992 -14 c-11 -5 -27 -9 -35 -9 -9 0
-8 4 5 9 11 5 27 9 35 9 9 0 8 -4 -5 -9z m985 -14 c0 -2 -7 -7 -16 -10 -8 -3
-12 -2 -9 4 6 10 25 14 25 6z m-1127 -23 c-7 -2 -19 -2 -25 0 -7 3 -2 5 12 5
14 0 19 -2 13 -5z m894 -29 c-3 -3 -12 -4 -19 -1 -8 3 -5 6 6 6 11 1 17 -2 13
-5z m-1072 -14 c-11 -5 -27 -9 -35 -9 -9 0 -8 4 5 9 11 5 27 9 35 9 9 0 8 -4
-5 -9z m642 -66 c-3 -3 -12 -4 -19 -1 -8 3 -5 6 6 6 11 1 17 -2 13 -5z m76 -1
c-7 -2 -19 -2 -25 0 -7 3 -2 5 12 5 14 0 19 -2 13 -5z m-1006 -9 c-3 -3 -12
-4 -19 -1 -8 3 -5 6 6 6 11 1 17 -2 13 -5z m826 -31 c-7 -2 -19 -2 -25 0 -7 3
-2 5 12 5 14 0 19 -2 13 -5z m-120 -30 c-7 -2 -19 -2 -25 0 -7 3 -2 5 12 5 14
0 19 -2 13 -5z m-66 -9 c-3 -3 -12 -4 -19 -1 -8 3 -5 6 6 6 11 1 17 -2 13 -5z
m-960 -10 c-3 -3 -12 -4 -19 -1 -8 3 -5 6 6 6 11 1 17 -2 13 -5z m830 -20 c-3
-3 -12 -4 -19 -1 -8 3 -5 6 6 6 11 1 17 -2 13 -5z m-212 -44 c-3 -5 -12 -10
-18 -10 -7 0 -6 4 3 10 19 12 23 12 15 0z m-938 -16 c-3 -3 -12 -4 -19 -1 -8
3 -5 6 6 6 11 1 17 -2 13 -5z m866 -1 c-7 -2 -19 -2 -25 0 -7 3 -2 5 12 5 14
0 19 -2 13 -5z m-906 -9 c-3 -3 -12 -4 -19 -1 -8 3 -5 6 6 6 11 1 17 -2 13 -5z
m843 2 c0 -2 -7 -6 -15 -10 -8 -3 -15 -1 -15 4 0 6 7 10 15 10 8 0 15 -2 15
-4z m-63 -22 c-3 -3 -12 -4 -19 -1 -8 3 -5 6 6 6 11 1 17 -2 13 -5z m-950 -20
c-3 -3 -12 -4 -19 -1 -8 3 -5 6 6 6 11 1 17 -2 13 -5z m-110 -30 c-3 -3 -12
-4 -19 -1 -8 3 -5 6 6 6 11 1 17 -2 13 -5z m816 -1 c-7 -2 -19 -2 -25 0 -7 3
-2 5 12 5 14 0 19 -2 13 -5z m-856 -9 c-3 -3 -12 -4 -19 -1 -8 3 -5 6 6 6 11
1 17 -2 13 -5z m726 -21 c-7 -2 -21 -2 -30 0 -10 3 -4 5 12 5 17 0 24 -2 18
-5z m-896 -19 c-3 -3 -12 -4 -19 -1 -8 3 -5 6 6 6 11 1 17 -2 13 -5z m710 -20
c-3 -3 -12 -4 -19 -1 -8 3 -5 6 6 6 11 1 17 -2 13 -5z m-820 -10 c-3 -3 -12
-4 -19 -1 -8 3 -5 6 6 6 11 1 17 -2 13 -5z m-40 -10 c-3 -3 -12 -4 -19 -1 -8
3 -5 6 6 6 11 1 17 -2 13 -5z m726 -11 c-7 -2 -19 -2 -25 0 -7 3 -2 5 12 5 14
0 19 -2 13 -5z m-830 -20 c-7 -2 -21 -2 -30 0 -10 3 -4 5 12 5 17 0 24 -2 18
-5z m-66 -9 c-3 -3 -12 -4 -19 -1 -8 3 -5 6 6 6 11 1 17 -2 13 -5z m710 -10
c-3 -3 -12 -4 -19 -1 -8 3 -5 6 6 6 11 1 17 -2 13 -5z m-820 -20 c-3 -3 -12
-4 -19 -1 -8 3 -5 6 6 6 11 1 17 -2 13 -5z m690 -10 c-3 -3 -12 -4 -19 -1 -8
3 -5 6 6 6 11 1 17 -2 13 -5z m-850 -30 c-3 -3 -12 -4 -19 -1 -8 3 -5 6 6 6
11 1 17 -2 13 -5z m-50 -10 c-3 -3 -12 -4 -19 -1 -8 3 -5 6 6 6 11 1 17 -2 13
-5z m660 -10 c-3 -3 -12 -4 -19 -1 -8 3 -5 6 6 6 11 1 17 -2 13 -5z m-770 -20
c-3 -3 -12 -4 -19 -1 -8 3 -5 6 6 6 11 1 17 -2 13 -5z m586 -21 c-7 -2 -19 -2
-25 0 -7 3 -2 5 12 5 14 0 19 -2 13 -5z m-746 -19 c-3 -3 -12 -4 -19 -1 -8 3
-5 6 6 6 11 1 17 -2 13 -5z m-50 -10 c-3 -3 -12 -4 -19 -1 -8 3 -5 6 6 6 11 1
17 -2 13 -5z m-98 -28 c-2 -2 -17 -6 -34 -10 -22 -5 -26 -4 -15 4 14 9 59 15
49 6z m551 -10 c0 -2 -9 -6 -20 -9 -11 -3 -20 -1 -20 4 0 5 9 9 20 9 11 0 20
-2 20 -4z m-673 -22 c-3 -3 -12 -4 -19 -1 -8 3 -5 6 6 6 11 1 17 -2 13 -5z
m600 0 c-3 -3 -12 -4 -19 -1 -8 3 -5 6 6 6 11 1 17 -2 13 -5z m-140 -30 c-3
-3 -12 -4 -19 -1 -8 3 -5 6 6 6 11 1 17 -2 13 -5z m-44 -11 c-7 -2 -19 -2 -25
0 -7 3 -2 5 12 5 14 0 19 -2 13 -5z m-606 -9 c-3 -3 -12 -4 -19 -1 -8 3 -5 6
6 6 11 1 17 -2 13 -5z m470 -20 c-3 -3 -12 -4 -19 -1 -8 3 -5 6 6 6 11 1 17
-2 13 -5z m-600 -10 c-3 -3 -12 -4 -19 -1 -8 3 -5 6 6 6 11 1 17 -2 13 -5z
m350 -40 c-3 -3 -12 -4 -19 -1 -8 3 -5 6 6 6 11 1 17 -2 13 -5z m-540 -10 c-3
-3 -12 -4 -19 -1 -8 3 -5 6 6 6 11 1 17 -2 13 -5z m-210 -50 c-3 -3 -12 -4
-19 -1 -8 3 -5 6 6 6 11 1 17 -2 13 -5z m25641 -2 l42 -2 0 -160 0 -160 -40 0
c-40 0 -40 0 -40 -39 0 -29 -5 -41 -17 -44 -10 -3 9 -6 42 -7 l60 -3 -85 -11
-85 -11 125 -5 c112 -5 117 -6 45 -9 -44 -2 -100 -4 -125 -6 -25 -2 -127 -6
-228 -9 -522 -17 -885 -45 -1192 -92 -91 -13 -170 -27 -177 -29 -27 -9 -19 11
29 72 109 138 327 291 518 363 19 7 39 17 45 22 5 4 16 8 25 8 8 0 26 6 40 13
36 19 120 41 127 33 3 -3 -2 -6 -13 -6 -16 0 -17 -2 -4 -10 11 -7 5 -8 -20 -5
-29 5 -31 4 -12 -4 34 -16 26 -22 -17 -15 -24 4 -41 2 -45 -5 -9 -15 3 -33 16
-25 6 4 5 10 -3 16 -9 5 -1 6 22 2 24 -4 47 -1 66 9 16 9 64 23 108 32 43 9
82 18 87 21 5 3 34 10 66 14 31 5 103 16 159 25 139 21 348 33 481 27z m17559
-6 c1 -1 3 -25 4 -53 2 -54 -5 -73 -25 -73 -8 0 -19 -6 -25 -14 -8 -9 -52 -15
-149 -20 -295 -15 -777 -60 -707 -66 18 -1 23 -4 13 -7 -16 -4 -18 -19 -18
-128 l0 -123 -97 -6 c-147 -11 -347 -33 -494 -56 -73 -11 -133 -19 -135 -17
-3 2 30 38 72 80 75 76 194 163 289 211 77 39 93 52 77 68 -11 11 -12 10 -6
-6 6 -15 3 -17 -13 -12 -12 4 -39 2 -62 -3 -56 -12 -39 9 27 34 26 10 49 21
52 24 8 10 112 52 155 63 22 6 44 15 50 19 13 12 45 11 45 -2 0 -14 -68 -41
-88 -35 -9 3 -28 -1 -42 -9 -28 -16 -9 -21 21 -5 11 6 19 7 19 1 0 -5 35 2 78
16 42 13 97 28 122 33 25 5 63 13 85 19 205 51 506 84 675 74 41 -3 76 -6 77
-7z m-42794 -13 c-7 -2 -19 -2 -25 0 -7 3 -2 5 12 5 14 0 19 -2 13 -5z m-516
-9 c-3 -3 -12 -4 -19 -1 -8 3 -5 6 6 6 11 1 17 -2 13 -5z m-62 -14 c-27 -12
-43 -12 -25 0 8 5 22 9 30 9 10 0 8 -3 -5 -9z m435 0 c0 -5 -4 -10 -10 -10 -5
0 -10 5 -10 10 0 6 5 10 10 10 6 0 10 -4 10 -10z m24620 0 c0 -5 -7 -10 -16
-10 -8 0 -12 5 -9 10 3 6 10 10 16 10 5 0 9 -4 9 -10z m17535 0 c-27 -12 -43
-12 -25 0 8 5 22 9 30 9 10 0 8 -3 -5 -9z m62 -6 c-3 -3 -12 -4 -19 -1 -8 3
-5 6 6 6 11 1 17 -2 13 -5z m-42720 -10 c-3 -3 -12 -4 -19 -1 -8 3 -5 6 6 6
11 1 17 -2 13 -5z m456 -1 c-7 -2 -19 -2 -25 0 -7 3 -2 5 12 5 14 0 19 -2 13
-5z m24607 -3 c-8 -5 -24 -10 -35 -10 -17 0 -17 2 -5 10 8 5 24 10 35 10 17 0
17 -2 5 -10z m17500 -5 c-46 -18 -74 -18 -35 0 17 7 39 13 50 13 13 0 7 -5
-15 -13z m-42643 -11 c-3 -3 -12 -4 -19 -1 -8 3 -5 6 6 6 11 1 17 -2 13 -5z
m42720 0 c-3 -3 -12 -4 -19 -1 -8 3 -5 6 6 6 11 1 17 -2 13 -5z m-42830 -30
c-3 -3 -12 -4 -19 -1 -8 3 -5 6 6 6 11 1 17 -2 13 -5z m-62 -14 c-27 -12 -43
-12 -25 0 8 5 22 9 30 9 10 0 8 -3 -5 -9z m382 -6 c-3 -3 -12 -4 -19 -1 -8 3
-5 6 6 6 11 1 17 -2 13 -5z m-450 -10 c-3 -3 -12 -4 -19 -1 -8 3 -5 6 6 6 11
1 17 -2 13 -5z m400 0 c-3 -3 -12 -4 -19 -1 -8 3 -5 6 6 6 11 1 17 -2 13 -5z
m43488 1 c-24 -8 -125 -11 -125 -3 0 4 30 8 68 7 37 0 63 -2 57 -4z m-43968
-21 c-3 -3 -12 -4 -19 -1 -8 3 -5 6 6 6 11 1 17 -2 13 -5z m-87 -24 c-8 -5
-24 -9 -35 -9 -16 1 -16 2 5 9 35 11 48 11 30 0z m-70 -20 c0 -5 -2 -10 -4
-10 -3 0 -8 5 -11 10 -3 6 -1 10 4 10 6 0 11 -4 11 -10z m367 4 c-3 -3 -12 -4
-19 -1 -8 3 -5 6 6 6 11 1 17 -2 13 -5z m-447 -24 c0 -5 -4 -10 -10 -10 -5 0
-10 5 -10 10 0 6 5 10 10 10 6 0 10 -4 10 -10z m207 -26 c-3 -3 -12 -4 -19 -1
-8 3 -5 6 6 6 11 1 17 -2 13 -5z m-447 -34 c0 -5 -2 -10 -4 -10 -3 0 -8 5 -11
10 -3 6 -1 10 4 10 6 0 11 -4 11 -10z m313 3 c-7 -2 -19 -2 -25 0 -7 3 -2 5
12 5 14 0 19 -2 13 -5z m-53 -7 c0 -2 -7 -7 -16 -10 -8 -3 -12 -2 -9 4 6 10
25 14 25 6z m-183 -42 c-3 -3 -12 -4 -19 -1 -8 3 -5 6 6 6 11 1 17 -2 13 -5z
m-397 -34 c0 -5 -2 -10 -4 -10 -3 0 -8 5 -11 10 -3 6 -1 10 4 10 6 0 11 -4 11
-10z m213 -7 c-7 -2 -19 -2 -25 0 -7 3 -2 5 12 5 14 0 19 -2 13 -5z m-293 -13
c0 -5 -4 -10 -10 -10 -5 0 -10 5 -10 10 0 6 5 10 10 10 6 0 10 -4 10 -10z
m-53 -26 c-3 -3 -12 -4 -19 -1 -8 3 -5 6 6 6 11 1 17 -2 13 -5z m-187 -34 c0
-5 -10 -10 -22 -9 -22 0 -22 1 -3 9 11 5 21 9 23 9 1 1 2 -3 2 -9z m199 6 c-2
-2 -17 -6 -34 -10 -22 -5 -26 -4 -15 4 14 9 59 15 49 6z m-279 -26 c-34 -11
-60 -11 -35 0 11 5 29 8 40 8 16 0 15 -2 -5 -8z m193 3 c-7 -2 -19 -2 -25 0
-7 3 -2 5 12 5 14 0 19 -2 13 -5z m-433 -63 c0 -5 -10 -10 -22 -9 -22 0 -22 1
-3 9 11 5 21 9 23 9 1 1 2 -3 2 -9z m95 0 c13 -6 15 -9 5 -9 -8 0 -22 4 -30 9
-18 12 -2 12 25 0z m-158 -16 c-3 -3 -12 -4 -19 -1 -8 3 -5 6 6 6 11 1 17 -2
13 -5z m-40 -10 c-3 -3 -12 -4 -19 -1 -8 3 -5 6 6 6 11 1 17 -2 13 -5z m-210
-50 c-3 -3 -12 -4 -19 -1 -8 3 -5 6 6 6 11 1 17 -2 13 -5z m90 0 c-3 -3 -12
-4 -19 -1 -8 3 -5 6 6 6 11 1 17 -2 13 -5z m-160 -20 c-3 -3 -12 -4 -19 -1 -8
3 -5 6 6 6 11 1 17 -2 13 -5z m-167 -44 c8 -5 11 -10 5 -10 -5 0 -17 5 -25 10
-8 5 -10 10 -5 10 6 0 17 -5 25 -10z m30060 -50 c63 -17 110 -77 110 -137 0
-40 -36 -106 -67 -125 -53 -30 -91 -32 -142 -7 -36 18 -51 33 -64 64 -34 81
-16 142 56 189 45 29 56 30 107 16z m17578 -16 c58 -38 78 -124 45 -194 -22
-46 -96 -86 -140 -76 -55 13 -93 41 -113 82 -24 48 -25 73 -6 118 35 85 138
118 214 70z m-47968 -14 c-14 -4 -34 -8 -45 -8 -16 0 -15 2 5 8 14 4 34 8 45
8 16 0 15 -2 -5 -8z m-163 -36 c-3 -3 -12 -4 -19 -1 -8 3 -5 6 6 6 11 1 17 -2
13 -5z m27106 -393 c31 -12 283 -64 437 -90 63 -11 131 -22 150 -26 74 -13 87
-14 150 -21 73 -7 90 -13 39 -15 -19 -1 -47 -5 -64 -9 -21 -6 -10 -7 35 -5 45
3 56 2 35 -4 -25 -6 -27 -9 -12 -15 15 -7 17 -25 17 -166 0 -168 1 -170 50
-170 10 0 22 -5 26 -11 8 -13 -30 -6 -126 23 -222 68 -469 203 -603 329 -34
32 -67 59 -73 59 -11 0 -55 51 -87 101 -20 31 -14 35 26 20z m17687 -37 c150
-33 309 -61 390 -70 36 -4 70 -9 75 -13 6 -3 17 -6 25 -7 8 -1 26 -2 40 -3 15
-1 20 -4 14 -9 -7 -4 30 -8 81 -8 51 -1 101 -7 112 -13 17 -11 17 -12 -2 -7
-11 2 -49 7 -85 10 -47 4 -60 3 -45 -4 16 -8 11 -9 -20 -5 -28 3 -36 2 -25 -5
8 -6 39 -7 69 -4 39 5 52 4 47 -5 -4 -6 -18 -11 -32 -11 l-25 0 3 -165 c3
-161 3 -165 -17 -159 -128 37 -354 138 -454 202 -113 73 -203 156 -271 249
-13 18 -27 30 -31 28 -4 -3 -5 4 -2 16 4 14 11 18 22 14 9 -4 68 -18 131 -31z
m-16797 -121 c-7 -2 -21 -2 -30 0 -10 3 -4 5 12 5 17 0 24 -2 18 -5z m-43 -23
c0 -5 -12 -10 -27 -10 -22 0 -25 2 -13 10 20 13 40 13 40 0z m-31570 -1610
c-8 -5 -75 -25 -150 -46 -236 -64 -512 -161 -765 -267 -222 -94 -255 -109
-441 -202 -191 -97 -328 -180 -390 -239 -21 -20 -41 -36 -45 -36 -7 0 -37 -27
-139 -125 -121 -115 -207 -218 -341 -405 -23 -31 -65 -101 -164 -270 -76 -128
-325 -647 -325 -675 0 -7 -7 -18 -15 -25 -12 -10 -15 -10 -15 1 0 15 135 551
195 779 147 553 268 909 334 984 91 103 777 275 1881 471 173 31 322 57 330
59 8 2 26 4 40 5 19 0 22 -2 10 -9z m10057 -4675 c93 -8 200 -20 238 -25 132
-19 200 -29 245 -39 165 -34 253 -54 310 -71 36 -10 112 -32 170 -49 161 -46
389 -131 575 -215 94 -42 416 -206 425 -217 3 -3 59 -38 125 -79 103 -63 139
-87 200 -132 5 -5 60 -45 120 -89 208 -155 317 -250 530 -465 141 -141 255
-269 335 -374 19 -25 37 -47 40 -50 28 -26 179 -247 272 -395 85 -138 143
-242 222 -405 31 -63 61 -122 65 -131 11 -20 85 -200 104 -254 82 -229 136
-398 162 -505 303 -1241 120 -2495 -521 -3563 -30 -49 -54 -93 -54 -98 0 -5
-3 -9 -7 -9 -5 0 -21 -23 -38 -51 -24 -41 -169 -245 -202 -284 -4 -5 -24 -30
-43 -55 -19 -25 -40 -51 -48 -58 -7 -8 -25 -30 -40 -50 -49 -64 -142 -164
-298 -319 -175 -173 -272 -257 -499 -430 -138 -105 -339 -234 -510 -327 -11
-6 -22 -13 -25 -16 -5 -5 -137 -71 -280 -140 -120 -58 -499 -205 -585 -227
-11 -3 -47 -13 -80 -23 -182 -55 -487 -117 -750 -151 -279 -37 -850 -37 -1110
1 -396 57 -733 137 -995 234 -25 10 -74 28 -110 40 -192 69 -507 222 -699 337
-34 22 -65 39 -66 39 -8 0 -258 170 -350 238 -273 200 -584 493 -790 742 -20
25 -53 65 -73 89 -21 24 -43 54 -51 65 -8 12 -17 23 -20 26 -35 31 -331 474
-331 495 0 3 -19 37 -43 77 -59 102 -156 302 -212 438 -26 63 -54 130 -62 149
-8 18 -19 45 -23 60 -16 48 -40 116 -50 136 -5 11 -16 45 -24 75 -8 30 -24 89
-36 130 -12 41 -35 134 -51 205 -16 72 -36 160 -45 198 -14 60 -25 142 -54
382 -26 214 -33 434 -22 665 7 129 18 285 26 345 8 61 17 135 20 165 11 89 74
385 112 525 20 72 42 153 50 180 8 28 18 59 23 70 5 11 22 56 36 100 25 75 91
242 137 345 28 63 142 294 148 300 3 3 15 23 27 45 29 56 49 88 121 207 34 57
68 112 75 123 7 11 14 22 17 25 3 3 17 21 30 40 25 37 194 262 221 295 80 95
111 131 177 204 119 129 337 338 467 447 76 64 306 238 345 261 17 9 30 21 30
25 0 4 5 8 10 8 6 0 52 26 103 58 51 32 135 83 187 112 52 30 97 57 100 60 6
6 195 100 202 100 3 0 49 20 101 45 53 25 98 45 101 45 3 0 29 11 58 24 53 24
263 99 328 118 19 5 61 19 93 29 212 71 581 139 957 178 145 14 575 12 757 -4z
m45733 -10 c232 -28 526 -82 680 -124 126 -34 260 -75 287 -87 17 -8 35 -14
39 -14 10 0 135 -46 181 -66 17 -8 34 -14 38 -14 16 0 227 -96 380 -172 141
-71 242 -127 350 -196 98 -63 269 -176 275 -182 3 -3 21 -17 40 -30 37 -26
221 -173 280 -225 131 -115 316 -290 327 -310 5 -8 40 -47 79 -87 91 -95 253
-297 370 -463 122 -172 285 -452 383 -657 73 -151 181 -414 181 -439 0 -8 4
-19 9 -25 18 -18 146 -457 156 -534 1 -8 5 -22 8 -30 23 -57 87 -529 95 -695
21 -453 3 -740 -73 -1175 -45 -255 -186 -723 -279 -925 -12 -27 -29 -66 -37
-85 -27 -67 -182 -375 -191 -378 -4 -2 -8 -8 -8 -13 0 -5 -18 -39 -40 -75 -22
-36 -40 -68 -40 -70 0 -5 -222 -338 -230 -344 -3 -3 -28 -34 -55 -70 -45 -60
-90 -115 -199 -244 -54 -65 -322 -334 -411 -413 -63 -56 -169 -143 -279 -228
-22 -16 -51 -40 -67 -53 -15 -12 -30 -22 -34 -22 -5 0 -23 -12 -42 -26 -47
-35 -193 -134 -200 -134 -3 0 -19 -10 -36 -22 -18 -13 -41 -28 -52 -34 -11 -6
-78 -43 -150 -82 -71 -39 -135 -75 -141 -80 -6 -5 -21 -13 -33 -17 -13 -4 -64
-26 -114 -49 -83 -38 -147 -66 -232 -101 -16 -7 -64 -25 -105 -39 -41 -15 -84
-31 -95 -36 -30 -14 -287 -89 -395 -115 -188 -46 -340 -74 -580 -106 -284 -38
-812 -37 -1090 1 -36 5 -119 16 -185 25 -103 14 -224 40 -475 100 -142 34
-575 184 -648 225 -9 5 -39 19 -67 30 -67 28 -271 132 -367 186 -43 24 -82 44
-87 44 -5 0 -11 4 -13 8 -1 4 -39 30 -83 57 -128 78 -415 283 -500 357 -210
181 -406 370 -516 498 -171 197 -251 300 -364 464 -324 475 -557 993 -689
1536 -178 735 -174 1558 13 2265 54 206 70 260 109 370 105 295 222 552 357
785 74 126 156 262 165 270 3 3 10 12 15 22 26 42 150 212 214 293 116 145
142 175 226 263 44 46 81 87 83 91 3 8 217 210 308 291 33 29 122 100 263 209
19 14 46 36 62 49 15 12 29 22 32 22 3 0 58 36 122 80 64 44 118 80 120 80 2
0 46 25 97 56 138 82 430 226 588 289 36 14 74 30 85 35 101 45 452 153 600
185 44 10 116 26 160 37 85 20 392 62 565 77 165 15 701 6 860 -14z m6410
-119 c0 -2 -7 -7 -16 -10 -8 -3 -12 -2 -9 4 6 10 25 14 25 6z m-66157 -23 c-7
-2 -19 -2 -25 0 -7 3 -2 5 12 5 14 0 19 -2 13 -5z m52604 -1405 c-3 -8 -6 -5
-6 6 -1 11 2 17 5 13 3 -3 4 -12 1 -19z m-230 -880 c-3 -8 -6 -5 -6 6 -1 11 2
17 5 13 3 -3 4 -12 1 -19z m-40 -210 c-3 -7 -5 -2 -5 12 0 14 2 19 5 13 2 -7
2 -19 0 -25z m-51 -275 c-11 -11 -17 4 -9 23 7 18 8 18 11 1 2 -10 1 -21 -2
-24z m-39 -185 c-3 -8 -6 -5 -6 6 -1 11 2 17 5 13 3 -3 4 -12 1 -19z m-45715
-140 c-6 -6 -7 0 -4 19 5 21 7 23 10 9 2 -10 0 -22 -6 -28z m45685 10 c-3 -8
-6 -5 -6 6 -1 11 2 17 5 13 3 -3 4 -12 1 -19z m-10 -80 c-3 -8 -6 -5 -6 6 -1
11 2 17 5 13 3 -3 4 -12 1 -19z m-10 -80 c-3 -8 -6 -5 -6 6 -1 11 2 17 5 13 3
-3 4 -12 1 -19z m-30 -190 c-3 -8 -6 -5 -6 6 -1 11 2 17 5 13 3 -3 4 -12 1
-19z m-50 -330 c-3 -7 -5 -2 -5 12 0 14 2 19 5 13 2 -7 2 -19 0 -25z m-45700
-70 c-3 -8 -6 -5 -6 6 -1 11 2 17 5 13 3 -3 4 -12 1 -19z m45690 0 c-3 -8 -6
-5 -6 6 -1 11 2 17 5 13 3 -3 4 -12 1 -19z m-17 -65 c-11 -17 -11 -17 -6 0 3
10 6 24 7 30 0 9 2 9 5 0 3 -7 0 -20 -6 -30z m-45683 -25 c-3 -7 -5 -2 -5 12
0 14 2 19 5 13 2 -7 2 -19 0 -25z m45677 -63 c-4 -8 -8 -15 -10 -15 -2 0 -4 7
-4 15 0 8 4 15 10 15 5 0 7 -7 4 -15z m43 -57 c-3 -8 -6 -5 -6 6 -1 11 2 17 5
13 3 -3 4 -12 1 -19z m-45750 -110 c-3 -8 -6 -5 -6 6 -1 11 2 17 5 13 3 -3 4
-12 1 -19z m45680 -25 c-3 -10 -5 -2 -5 17 0 19 2 27 5 18 2 -10 2 -26 0 -35z
m-45690 -105 c-3 -8 -6 -5 -6 6 -1 11 2 17 5 13 3 -3 4 -12 1 -19z m45680 -40
c-2 -13 -4 -3 -4 22 0 25 2 35 4 23 2 -13 2 -33 0 -45z m-17 -115 c-11 -17
-11 -17 -6 0 3 10 7 26 7 35 1 15 2 15 6 0 2 -10 -1 -25 -7 -35z m-45683 -5
c-3 -7 -5 -2 -5 12 0 14 2 19 5 13 2 -7 2 -19 0 -25z m45710 0 c-3 -8 -6 -5
-6 6 -1 11 2 17 5 13 3 -3 4 -12 1 -19z m-45720 -85 c-3 -10 -5 -2 -5 17 0 19
2 27 5 18 2 -10 2 -26 0 -35z m45687 -24 c-4 -35 -9 -58 -12 -51 -5 16 8 126
14 119 3 -3 2 -33 -2 -68z m-45697 -51 c-3 -8 -6 -5 -6 6 -1 11 2 17 5 13 3
-3 4 -12 1 -19z m0 -40 c-3 -8 -6 -5 -6 6 -1 11 2 17 5 13 3 -3 4 -12 1 -19z
m45693 -9 c0 -16 -4 -28 -9 -25 -8 5 -3 56 5 56 2 0 4 -14 4 -31z m-13 -76
c-3 -10 -5 -4 -5 12 0 17 2 24 5 18 2 -7 2 -21 0 -30z"/>
<path d="M37608 18123 c7 -3 16 -2 19 1 4 3 -2 6 -13 5 -11 0 -14 -3 -6 -6z"/>
<path d="M55208 18443 c7 -3 16 -2 19 1 4 3 -2 6 -13 5 -11 0 -14 -3 -6 -6z"/>
<path d="M54188 18363 c7 -3 16 -2 19 1 4 3 -2 6 -13 5 -11 0 -14 -3 -6 -6z"/>
<path d="M14490 9649 c-371 -46 -675 -136 -993 -295 -90 -46 -211 -116 -215
-126 -2 -5 -8 -8 -13 -8 -17 0 -263 -176 -315 -226 -7 -6 -25 -22 -42 -36 -47
-40 -66 -135 -40 -209 8 -24 222 -245 727 -751 l715 -717 31 20 c97 65 292
141 418 164 l37 7 0 999 0 1000 -25 49 c-50 98 -154 145 -285 129z"/>
<path d="M15403 9645 c-80 -24 -131 -62 -161 -118 l-27 -52 -3 -980 c-1 -539
0 -990 3 -1002 4 -16 15 -23 46 -28 102 -17 283 -87 376 -144 28 -17 55 -31
60 -31 5 0 332 321 726 713 486 484 718 722 723 741 3 15 4 62 2 105 -4 77 -5
79 -46 116 -64 57 -215 170 -324 242 -95 63 -359 203 -448 238 -260 102 -511
169 -735 195 -49 6 -103 12 -120 15 -16 2 -49 -2 -72 -10z"/>
<path d="M12265 8291 c-33 -15 -68 -39 -77 -53 -9 -14 -23 -31 -30 -39 -29
-28 -160 -211 -209 -290 -123 -197 -244 -469 -312 -699 -57 -192 -107 -479
-107 -616 0 -54 4 -66 35 -106 19 -26 53 -55 78 -67 43 -21 46 -21 1080 -21
596 0 1038 4 1041 9 3 5 8 25 10 44 11 86 61 238 111 337 l37 73 -713 713
c-768 768 -742 745 -843 744 -23 -1 -68 -13 -101 -29z"/>
<path d="M17554 8308 c-39 -12 -1474 -1445 -1459 -1456 22 -16 99 -201 126
-302 6 -25 14 -67 18 -95 l6 -50 1035 -3 c569 -1 1049 0 1066 3 42 7 116 73
138 122 17 38 16 45 -8 234 -26 194 -81 435 -130 569 -74 201 -89 240 -97 240
-5 0 -9 7 -9 16 0 33 -165 330 -249 449 -20 27 -70 93 -112 146 -69 85 -83 98
-134 117 -60 23 -137 27 -191 10z"/>
<path d="M12985 5915 c-341 -7 -768 -16 -950 -20 l-330 -7 -51 -29 c-41 -23
-58 -41 -85 -91 -38 -72 -42 -119 -20 -253 65 -400 183 -730 379 -1055 125
-207 323 -459 376 -479 40 -15 130 -14 169 3 19 7 130 115 267 256 129 134
267 276 305 315 39 39 135 139 215 222 289 299 577 597 647 670 66 67 72 77
61 96 -6 12 -14 24 -18 27 -16 12 -105 200 -129 274 l-28 81 -94 1 c-52 1
-373 -4 -714 -11z"/>
<path d="M16215 5918 c-51 -167 -86 -247 -151 -349 -13 -21 -24 -43 -24 -48 0
-4 35 -44 78 -87 42 -44 176 -182 297 -309 121 -126 240 -250 265 -275 133
-135 742 -770 784 -817 47 -53 89 -67 188 -62 86 5 80 1 201 147 335 407 558
918 622 1428 13 106 13 126 0 170 -20 68 -67 128 -120 154 -44 21 -59 22 -828
35 -430 8 -900 16 -1045 19 -206 5 -263 3 -267 -6z"/>
<path d="M14210 5097 c-52 -51 -252 -245 -445 -432 -373 -362 -669 -651 -796
-777 -63 -63 -81 -88 -95 -132 -16 -52 -16 -58 1 -123 15 -56 27 -76 69 -118
28 -28 78 -71 111 -95 33 -25 62 -48 65 -51 10 -11 159 -109 241 -157 370
-219 740 -337 1213 -386 64 -7 162 58 188 124 5 15 15 405 23 945 18 1156 18
1105 3 1109 -7 2 -60 16 -118 31 -70 19 -146 49 -229 92 -68 34 -127 63 -130
63 -3 0 -49 -42 -101 -93z"/>
<path d="M15675 5181 c-45 -45 -366 -171 -434 -171 l-33 0 6 -417 c4 -230 9
-519 11 -643 20 -1076 16 -982 41 -1021 25 -41 77 -87 112 -100 25 -10 207 9
362 37 286 52 607 169 869 317 97 55 210 125 221 137 3 4 21 16 40 27 19 12
44 30 55 40 12 10 41 34 65 53 119 92 160 157 160 253 0 82 -16 113 -104 200
-147 144 -435 425 -706 687 -146 140 -345 334 -442 430 -98 96 -186 176 -196
178 -9 1 -22 -2 -27 -7z"/>
<path d="M60040 9640 c-390 -53 -749 -177 -1079 -372 -93 -55 -229 -145 -249
-165 -7 -7 -16 -13 -20 -13 -4 0 -21 -13 -38 -28 -18 -15 -57 -47 -87 -72 -62
-51 -76 -74 -84 -142 -13 -107 -48 -66 732 -848 l713 -714 119 61 c111 57 201
90 316 117 l47 11 0 1010 0 1010 -28 45 c-29 47 -115 102 -177 113 -16 3 -91
-3 -165 -13z"/>
<path d="M61010 9641 c-77 -27 -119 -60 -145 -112 l-25 -48 0 -1003 0 -1003
93 -24 c108 -27 237 -80 323 -132 l61 -37 721 717 c715 711 720 717 727 764 4
26 5 73 3 104 -4 51 -9 60 -50 97 -221 202 -569 409 -883 524 -165 60 -393
119 -550 141 -213 30 -225 31 -275 12z"/>
<path d="M63194 8314 c-48 -15 -93 -58 -770 -735 -414 -415 -715 -723 -709
-727 31 -21 119 -261 139 -377 l12 -70 1048 -3 c1185 -2 1086 -9 1157 81 35
44 39 54 39 108 0 80 -44 371 -75 497 -57 235 -167 513 -283 717 -28 50 -55
95 -59 100 -5 6 -24 35 -42 65 -58 95 -226 310 -243 310 -5 0 -28 9 -51 19
-61 28 -106 32 -163 15z"/>
<path d="M57916 8304 c-68 -22 -91 -38 -144 -108 -25 -34 -49 -63 -52 -66 -3
-3 -17 -21 -30 -40 -13 -19 -27 -37 -30 -40 -16 -13 -163 -258 -212 -355 -166
-324 -290 -779 -299 -1096 -3 -101 64 -174 174 -190 34 -5 513 -9 1063 -9
l1001 0 7 58 c9 78 58 231 106 327 l39 80 -707 708 c-389 390 -719 715 -734
722 -42 23 -126 27 -182 9z"/>
<path d="M58825 5919 c-236 -4 -610 -12 -830 -18 -220 -6 -460 -11 -533 -11
-113 0 -139 -3 -172 -20 -52 -27 -81 -56 -107 -110 -33 -69 -35 -96 -18 -220
42 -305 142 -625 282 -903 87 -174 276 -454 386 -572 25 -27 47 -54 47 -58 0
-16 71 -37 125 -37 31 0 70 6 88 14 18 8 124 109 247 236 118 123 242 250 275
284 33 34 127 131 209 216 81 85 212 220 290 300 297 305 476 493 476 501 0 4
-24 52 -54 106 -30 54 -60 116 -68 138 -7 22 -15 42 -19 45 -3 3 -12 30 -20
60 l-14 55 -80 1 c-44 1 -273 -2 -510 -7z"/>
<path d="M61837 5918 c-2 -7 -6 -17 -7 -23 -19 -80 -132 -318 -167 -354 -15
-15 -19 -9 71 -105 77 -81 442 -461 506 -526 36 -36 160 -165 275 -285 227
-237 466 -484 557 -577 32 -32 69 -63 83 -68 43 -16 163 -12 193 6 38 23 242
271 242 294 0 5 6 13 13 17 36 22 232 372 287 513 12 30 28 69 35 85 65 139
138 430 169 666 15 114 15 116 -7 171 -33 79 -50 102 -102 133 l-46 27 -792
13 c-436 8 -907 16 -1048 20 -205 5 -258 3 -262 -7z"/>
<path d="M59689 4963 c-128 -126 -312 -304 -408 -398 -269 -262 -503 -490
-643 -626 -104 -102 -129 -132 -142 -172 -20 -61 -20 -72 4 -150 22 -71 40
-92 165 -192 408 -325 960 -545 1489 -594 99 -9 110 -6 174 53 64 58 60 19 71
797 6 393 13 852 17 1022 l6 307 -28 0 c-70 0 -372 118 -425 166 -8 8 -23 14
-31 14 -9 0 -121 -102 -249 -227z"/>
<path d="M61265 5164 c-113 -69 -339 -154 -411 -154 l-25 0 6 -282 c3 -156 10
-613 16 -1017 11 -821 6 -771 85 -840 45 -40 73 -51 116 -46 18 3 92 12 163
21 196 24 507 101 620 154 11 5 56 23 99 40 75 29 295 137 306 149 3 3 25 17
50 30 45 24 248 161 285 192 11 10 44 36 73 58 147 116 164 287 39 405 -29 27
-129 124 -223 215 -94 91 -289 281 -434 421 -146 140 -343 332 -440 426 -206
201 -264 254 -276 253 -5 0 -27 -11 -49 -25z"/>
</g>
</svg>
